<svg xmlns="http://www.w3.org/2000/svg" xmlns:xlink="http://www.w3.org/1999/xlink" width="250" zoomAndPan="magnify" viewBox="0 0 187.5 187.499992" height="250" preserveAspectRatio="xMidYMid meet" version="1.2"><defs><clipPath id="9a9869aa5e"><path d="M 12.511719 150 L 174.828125 150 L 174.828125 155.265625 L 12.511719 155.265625 Z M 12.511719 150 "/></clipPath><clipPath id="9925c42625"><path d="M 139 31.847656 L 159 31.847656 L 159 52 L 139 52 Z M 139 31.847656 "/></clipPath></defs><g id="01c7338344"><g clip-rule="nonzero" clip-path="url(#9a9869aa5e)"><path style=" stroke:none;fill-rule:evenodd;fill:#ffaa00;fill-opacity:1;" d="M 172.222656 155.152344 L 14.773438 155.152344 C 13.507812 155.152344 12.5625 154.203125 12.5625 152.621094 C 12.5625 151.355469 13.507812 150.40625 14.773438 150.40625 L 172.222656 150.40625 C 173.488281 150.40625 174.4375 151.355469 174.4375 152.621094 C 174.4375 154.203125 173.488281 155.152344 172.222656 155.152344 Z M 172.222656 155.152344 "/></g><path style=" stroke:none;fill-rule:evenodd;fill:#ffaa00;fill-opacity:1;" d="M 26.472656 145.980469 L 26.472656 124.796875 C 26.472656 123.535156 27.421875 122.269531 29 122.269531 L 47.65625 122.269531 C 48.917969 122.269531 50.183594 123.535156 50.183594 124.796875 L 50.183594 145.980469 Z M 26.472656 145.980469 "/><path style=" stroke:none;fill-rule:evenodd;fill:#ffaa00;fill-opacity:1;" d="M 63.464844 145.980469 L 63.464844 96.34375 C 63.464844 95.078125 64.410156 93.816406 65.675781 93.816406 L 84.644531 93.816406 C 85.910156 93.816406 86.859375 95.078125 86.859375 96.34375 L 86.859375 145.980469 Z M 63.464844 145.980469 "/><path style=" stroke:none;fill-rule:evenodd;fill:#ffaa00;fill-opacity:1;" d="M 100.136719 145.980469 L 100.136719 105.511719 C 100.136719 103.933594 101.085938 102.984375 102.351562 102.984375 L 121.320312 102.984375 C 122.585938 102.984375 123.535156 103.933594 123.535156 105.511719 L 123.535156 145.980469 Z M 100.136719 145.980469 "/><path style=" stroke:none;fill-rule:evenodd;fill:#ffaa00;fill-opacity:1;" d="M 136.8125 145.980469 L 136.8125 75.160156 C 136.8125 73.894531 137.761719 72.949219 139.34375 72.949219 L 157.996094 72.949219 C 159.261719 72.949219 160.210938 73.894531 160.210938 75.160156 L 160.210938 145.980469 Z M 136.8125 145.980469 "/><path style=" stroke:none;fill-rule:evenodd;fill:#ffaa00;fill-opacity:1;" d="M 44.175781 89.070312 C 43.546875 89.070312 42.914062 88.757812 42.28125 88.125 C 41.648438 86.859375 41.648438 85.59375 42.597656 84.644531 L 67.890625 65.359375 C 68.839844 64.410156 70.417969 64.726562 71.050781 65.675781 C 72 66.625 71.683594 68.207031 70.734375 68.835938 L 45.441406 88.441406 C 45.125 88.757812 44.492188 89.070312 44.175781 89.070312 Z M 104.882812 72.316406 C 104.882812 72.316406 104.566406 72.316406 104.25 72.316406 L 81.800781 66.625 C 80.535156 66.625 79.902344 65.042969 80.21875 64.09375 C 80.535156 62.832031 81.800781 61.882812 83.066406 62.199219 L 105.511719 67.890625 C 106.460938 68.207031 107.410156 69.46875 107.09375 70.417969 C 106.777344 71.683594 105.828125 72.316406 104.882812 72.316406 Z M 117.527344 69.46875 C 116.894531 69.46875 116.261719 69.152344 115.628906 68.519531 C 115 67.574219 115 65.992188 115.945312 65.359375 L 141.554688 44.492188 C 142.503906 43.859375 144.085938 43.859375 144.71875 44.808594 C 145.667969 45.757812 145.351562 47.339844 144.71875 47.972656 L 119.109375 68.835938 C 118.792969 69.152344 118.160156 69.46875 117.527344 69.46875 Z M 117.527344 69.46875 "/><path style=" stroke:none;fill-rule:evenodd;fill:#ffaa00;fill-opacity:1;" d="M 38.171875 100.769531 C 32.796875 100.769531 28.371094 96.34375 28.371094 90.96875 C 28.371094 85.59375 32.796875 81.484375 38.171875 81.484375 C 43.546875 81.484375 47.972656 85.59375 47.972656 90.96875 C 47.972656 96.34375 43.546875 100.769531 38.171875 100.769531 Z M 38.171875 100.769531 "/><path style=" stroke:none;fill-rule:evenodd;fill:#ffaa00;fill-opacity:1;" d="M 75.160156 72.316406 C 69.785156 72.316406 65.359375 68.207031 65.359375 62.515625 C 65.359375 57.140625 69.785156 53.03125 75.160156 53.03125 C 80.535156 53.03125 84.960938 57.140625 84.960938 62.515625 C 84.960938 68.207031 80.535156 72.316406 75.160156 72.316406 Z M 75.160156 72.316406 "/><path style=" stroke:none;fill-rule:evenodd;fill:#ffaa00;fill-opacity:1;" d="M 111.835938 81.484375 C 106.460938 81.484375 102.351562 77.375 102.351562 72 C 102.351562 66.625 106.460938 62.199219 111.835938 62.199219 C 117.210938 62.199219 121.636719 66.625 121.636719 72 C 121.636719 77.375 117.210938 81.484375 111.835938 81.484375 Z M 111.835938 81.484375 "/><g clip-rule="nonzero" clip-path="url(#9925c42625)"><path style=" stroke:none;fill-rule:evenodd;fill:#ffaa00;fill-opacity:1;" d="M 148.828125 51.449219 C 143.453125 51.449219 139.027344 47.023438 139.027344 41.648438 C 139.027344 36.273438 143.453125 31.847656 148.828125 31.847656 C 154.203125 31.847656 158.628906 36.273438 158.628906 41.648438 C 158.628906 47.023438 154.203125 51.449219 148.828125 51.449219 Z M 148.828125 51.449219 "/></g></g></svg>