<svg xmlns="http://www.w3.org/2000/svg" xmlns:xlink="http://www.w3.org/1999/xlink" width="250" zoomAndPan="magnify" viewBox="0 0 187.5 187.499992" height="250" preserveAspectRatio="xMidYMid meet" version="1.2"><defs><clipPath id="a33700d122"><path d="M 43 135 L 109 135 L 109 153.351562 L 43 153.351562 Z M 43 135 "/></clipPath><clipPath id="0e54a1c838"><path d="M 78 135 L 144 135 L 144 153.351562 L 78 153.351562 Z M 78 135 "/></clipPath><clipPath id="ab4e0588e5"><path d="M 89 31.425781 L 99 31.425781 L 99 42 L 89 42 Z M 89 31.425781 "/></clipPath><clipPath id="1e92cc35d4"><path d="M 88 31.425781 L 98 31.425781 L 98 42 L 88 42 Z M 88 31.425781 "/></clipPath><clipPath id="ff9136e5ef"><path d="M 162 63 L 174.378906 63 L 174.378906 76 L 162 76 Z M 162 63 "/></clipPath><clipPath id="3234242edf"><path d="M 12.808594 63 L 25 63 L 25 76 L 12.808594 76 Z M 12.808594 63 "/></clipPath></defs><g id="1363e20c18"><path style=" stroke:none;fill-rule:nonzero;fill:#ffaa00;fill-opacity:1;" d="M 97.234375 130.1875 L 96.78125 130.1875 C 95.582031 130.199219 94.476562 130.257812 93.460938 130.359375 L 79.328125 141.382812 C 82.464844 141.125 87.125 141.148438 93.300781 141.449219 C 99.183594 141.773438 105.992188 142.417969 113.722656 143.386719 C 119.152344 144.289062 123.152344 145.132812 125.730469 145.910156 C 128.640625 146.777344 132.53125 148.382812 137.398438 150.726562 C 137.824219 150.898438 138.210938 150.984375 138.5625 150.984375 C 139.242188 151.046875 139.863281 150.609375 140.421875 149.664062 L 143.136719 142.542969 C 143.273438 141.472656 142.78125 140.648438 141.664062 140.066406 C 125.195312 135.050781 115.511719 132.265625 112.613281 131.707031 C 107.105469 130.769531 101.980469 130.261719 97.234375 130.1875 "/><path style=" stroke:none;fill-rule:nonzero;fill:#ffaa00;fill-opacity:1;" d="M 89.765625 130.1875 L 90.21875 130.1875 C 91.417969 130.199219 92.523438 130.257812 93.535156 130.359375 L 107.671875 141.382812 C 104.53125 141.125 99.875 141.148438 93.695312 141.449219 C 87.816406 141.773438 81.007812 142.417969 73.273438 143.386719 C 67.847656 144.289062 63.847656 145.132812 61.269531 145.910156 C 58.355469 146.777344 54.46875 148.382812 49.601562 150.726562 C 49.175781 150.898438 48.785156 150.984375 48.4375 150.984375 C 47.753906 151.046875 47.136719 150.609375 46.578125 149.664062 L 43.863281 142.542969 C 43.726562 141.472656 44.214844 140.648438 45.332031 140.066406 C 61.804688 135.050781 71.484375 132.265625 74.382812 131.707031 C 79.890625 130.769531 85.019531 130.261719 89.765625 130.1875 "/><path style=" stroke:none;fill-rule:nonzero;fill:#ffaa00;fill-opacity:1;" d="M 90.785156 128.460938 L 90.550781 128.460938 C 89 128.488281 87.566406 128.566406 86.253906 128.699219 C 85.644531 128.699219 83.351562 129.011719 79.378906 129.640625 C 76.347656 130.152344 72.488281 130.996094 67.800781 132.175781 C 58.6875 134.667969 50.863281 137.347656 44.320312 140.207031 L 129.710938 138.683594 C 130.066406 138.660156 130.359375 138.621094 130.582031 138.566406 C 131.355469 138.265625 131.351562 137.894531 130.574219 137.453125 L 126.363281 135.667969 C 121.058594 133.535156 115.992188 131.898438 111.167969 130.761719 C 105.339844 129.226562 98.542969 128.460938 90.785156 128.460938 M 44.320312 140.207031 L 44.136719 140.210938 C 44.109375 140.226562 44.089844 140.242188 44.070312 140.253906 C 44.050781 140.269531 44.039062 140.277344 44.027344 140.289062 L 44.011719 140.300781 L 44.003906 140.3125 L 44 140.316406 L 44.003906 140.320312 L 44.011719 140.324219 L 44.019531 140.324219 L 44.03125 140.320312 L 44.046875 140.316406 C 44.070312 140.308594 44.101562 140.300781 44.140625 140.285156 C 44.160156 140.277344 44.179688 140.269531 44.203125 140.261719 L 44.320312 140.207031 "/><path style=" stroke:none;fill-rule:nonzero;fill:#ffaa00;fill-opacity:1;" d="M 96.210938 128.460938 L 96.449219 128.460938 C 98 128.488281 99.429688 128.566406 100.746094 128.699219 C 101.351562 128.699219 103.644531 129.011719 107.621094 129.640625 C 110.652344 130.152344 114.511719 130.996094 119.199219 132.175781 C 128.308594 134.667969 136.136719 137.347656 142.679688 140.207031 L 57.285156 138.683594 C 56.929688 138.660156 56.640625 138.621094 56.414062 138.566406 C 55.644531 138.265625 55.648438 137.894531 56.425781 137.453125 L 60.632812 135.667969 C 65.941406 133.535156 71.003906 131.898438 75.828125 130.761719 C 81.660156 129.226562 88.453125 128.460938 96.210938 128.460938 M 142.679688 140.207031 L 142.863281 140.210938 C 142.890625 140.226562 142.910156 140.242188 142.929688 140.253906 C 142.945312 140.269531 142.960938 140.277344 142.972656 140.289062 L 142.996094 140.3125 L 142.996094 140.320312 L 142.988281 140.324219 L 142.976562 140.324219 L 142.964844 140.320312 L 142.949219 140.316406 C 142.929688 140.308594 142.898438 140.300781 142.859375 140.285156 C 142.839844 140.277344 142.820312 140.269531 142.796875 140.261719 L 142.679688 140.207031 "/><g clip-rule="nonzero" clip-path="url(#a33700d122)"><path style=" stroke:none;fill-rule:nonzero;fill:#ffaa00;fill-opacity:1;" d="M 107.078125 135.808594 L 52.910156 137.667969 C 52.382812 138.023438 51.5 138.378906 50.261719 138.734375 C 49.535156 139 47.433594 139.441406 43.964844 140.0625 C 43.605469 140.230469 43.390625 140.449219 43.324219 140.726562 C 42.976562 143.402344 44.390625 147.515625 47.5625 153.066406 L 51.976562 150.949219 L 56.953125 149.054688 L 62.496094 147.386719 L 68.605469 145.949219 L 75.277344 144.734375 L 82.519531 143.75 L 90.328125 142.988281 L 98.699219 142.457031 L 107.734375 142.15625 L 108.089844 142.078125 C 108.886719 141.660156 108.550781 139.570312 107.078125 135.808594 "/></g><g clip-rule="nonzero" clip-path="url(#0e54a1c838)"><path style=" stroke:none;fill-rule:nonzero;fill:#ffaa00;fill-opacity:1;" d="M 79.917969 135.808594 L 134.085938 137.667969 C 134.617188 138.023438 135.5 138.378906 136.734375 138.734375 C 137.464844 139 139.5625 139.441406 143.035156 140.0625 C 143.394531 140.230469 143.605469 140.449219 143.671875 140.726562 C 144.019531 143.402344 142.609375 147.515625 139.433594 153.066406 L 135.023438 150.949219 L 130.046875 149.054688 L 124.503906 147.386719 L 118.394531 145.949219 L 111.71875 144.734375 L 104.480469 143.75 L 96.671875 142.988281 L 88.296875 142.457031 L 79.261719 142.15625 L 78.910156 142.078125 C 78.113281 141.660156 78.449219 139.570312 79.917969 135.808594 "/></g><path style=" stroke:none;fill-rule:nonzero;fill:#ffaa00;fill-opacity:1;" d="M 91.40625 69.589844 L 91.527344 70.066406 C 91.847656 71.335938 92.199219 72.5625 92.578125 73.746094 L 92.550781 72.917969 L 92.496094 72.183594 L 92.417969 71.539062 L 92.3125 70.988281 L 92.183594 70.527344 L 92.027344 70.15625 L 91.847656 69.875 L 91.640625 69.6875 L 91.40625 69.589844 M 167.175781 71.910156 L 167.082031 71.921875 C 166.808594 71.984375 166.355469 72.300781 165.722656 72.871094 C 162.039062 77.695312 158.246094 82.007812 154.351562 85.808594 C 152.054688 88.191406 149.257812 90.464844 145.96875 92.625 C 139.375 96.796875 132.382812 99.007812 124.992188 99.265625 C 125.335938 99.421875 123.230469 99.222656 118.675781 98.675781 L 114.066406 97.546875 L 109.839844 95.851562 L 106 93.585938 L 102.546875 90.757812 L 99.476562 87.355469 L 96.792969 83.390625 C 95.132812 80.554688 93.726562 77.34375 92.578125 73.753906 C 92.390625 82.773438 91.386719 89.441406 89.570312 93.761719 L 91.941406 122.238281 C 95.375 121.921875 104.078125 123.09375 118.050781 125.757812 C 121.039062 126.359375 128.960938 128.988281 141.820312 133.644531 C 142.382812 133.777344 142.777344 133.824219 143 133.785156 C 143.152344 133.78125 143.292969 133.722656 143.421875 133.613281 C 148.726562 120.035156 153.617188 108.339844 158.089844 98.523438 C 159.089844 96.023438 162.179688 87.203125 167.367188 72.058594 C 167.324219 71.949219 167.257812 71.902344 167.175781 71.910156 "/><path style=" stroke:none;fill-rule:nonzero;fill:#ffaa00;fill-opacity:1;" d="M 95.59375 69.589844 L 95.472656 70.066406 C 95.148438 71.335938 94.800781 72.5625 94.421875 73.746094 L 94.449219 72.917969 L 94.503906 72.183594 L 94.582031 71.539062 L 94.6875 70.988281 L 94.816406 70.527344 L 94.972656 70.15625 L 95.152344 69.875 L 95.359375 69.6875 L 95.59375 69.589844 M 19.824219 71.910156 L 19.917969 71.921875 C 20.1875 71.984375 20.640625 72.300781 21.273438 72.871094 C 24.960938 77.695312 28.75 82.007812 32.644531 85.808594 C 34.945312 88.191406 37.738281 90.464844 41.03125 92.625 C 47.625 96.796875 54.617188 99.007812 62.007812 99.265625 C 61.660156 99.421875 63.765625 99.222656 68.320312 98.675781 L 72.933594 97.546875 L 77.15625 95.851562 L 80.996094 93.585938 L 84.453125 90.757812 L 87.519531 87.355469 L 90.203125 83.390625 C 91.867188 80.554688 93.269531 77.34375 94.421875 73.753906 C 94.609375 82.773438 95.609375 89.441406 97.429688 93.761719 L 95.054688 122.238281 C 91.625 121.921875 82.921875 123.09375 68.945312 125.757812 C 65.960938 126.359375 58.035156 128.988281 45.175781 133.644531 C 44.613281 133.777344 44.222656 133.824219 43.996094 133.785156 C 43.84375 133.78125 43.707031 133.722656 43.578125 133.613281 C 38.269531 120.035156 33.382812 108.339844 28.910156 98.523438 C 27.910156 96.023438 24.816406 87.203125 19.632812 72.058594 C 19.675781 71.949219 19.738281 71.902344 19.824219 71.910156 "/><path style=" stroke:none;fill-rule:nonzero;fill:#ffaa00;fill-opacity:1;" d="M 92.746094 42.460938 L 92.535156 45.078125 C 91.871094 52.144531 90.378906 59.929688 88.054688 68.433594 C 85.902344 75.53125 83.199219 81.324219 79.949219 85.8125 C 77.082031 89.78125 72.714844 93.613281 66.847656 97.300781 C 61.433594 100.457031 57.394531 101.546875 54.726562 100.5625 L 65.589844 112.082031 C 71.976562 110.410156 77.394531 107.941406 81.839844 104.671875 C 84.066406 103.039062 86.046875 101.203125 87.785156 99.171875 L 90.210938 95.972656 C 94.574219 89.070312 96.90625 81.449219 97.207031 73.105469 C 97.671875 69.914062 96.1875 59.699219 92.746094 42.460938 "/><path style=" stroke:none;fill-rule:nonzero;fill:#ffaa00;fill-opacity:1;" d="M 94.253906 42.460938 L 94.464844 45.078125 C 95.125 52.144531 96.621094 59.929688 98.945312 68.433594 C 101.097656 75.53125 103.796875 81.324219 107.046875 85.8125 C 109.917969 89.78125 114.285156 93.613281 120.152344 97.300781 C 125.5625 100.457031 129.605469 101.546875 132.269531 100.5625 L 121.40625 112.082031 C 115.019531 110.410156 109.605469 107.941406 105.15625 104.671875 C 102.933594 103.039062 100.953125 101.203125 99.214844 99.171875 L 96.789062 95.972656 C 92.421875 89.070312 90.089844 81.449219 89.792969 73.105469 C 89.324219 69.914062 90.8125 59.699219 94.253906 42.460938 "/><path style=" stroke:none;fill-rule:nonzero;fill:#ffaa00;fill-opacity:1;" d="M 113.0625 93.308594 L 115.472656 106.519531 C 119.792969 107.226562 124.273438 106.960938 128.917969 105.722656 C 130.277344 105.300781 131.492188 104.875 132.5625 104.449219 L 134.054688 103.8125 C 134.976562 103.390625 135.753906 102.964844 136.382812 102.542969 C 137.011719 102.121094 137.492188 101.699219 137.828125 101.277344 L 138.222656 100.644531 C 138.402344 100.074219 138.453125 99.800781 138.375 99.820312 C 138.277344 99.332031 137.53125 98.972656 136.144531 98.738281 C 135.90625 98.710938 135.488281 98.6875 134.890625 98.671875 C 129.886719 98.703125 127.011719 98.695312 126.261719 98.65625 C 125.019531 98.628906 123.40625 98.363281 121.417969 97.855469 C 119.644531 97.34375 116.859375 95.828125 113.0625 93.308594 "/><path style=" stroke:none;fill-rule:nonzero;fill:#ffaa00;fill-opacity:1;" d="M 73.933594 93.308594 L 71.527344 106.519531 C 67.207031 107.226562 62.726562 106.960938 58.082031 105.722656 C 56.71875 105.300781 55.503906 104.875 54.4375 104.449219 L 52.941406 103.8125 C 52.019531 103.390625 51.246094 102.964844 50.617188 102.542969 C 49.988281 102.121094 49.507812 101.699219 49.171875 101.277344 L 48.777344 100.644531 C 48.597656 100.074219 48.546875 99.800781 48.625 99.820312 C 48.722656 99.332031 49.464844 98.972656 50.855469 98.738281 C 51.09375 98.710938 51.511719 98.6875 52.109375 98.671875 C 57.109375 98.703125 59.988281 98.695312 60.734375 98.65625 C 61.976562 98.628906 63.59375 98.363281 65.578125 97.855469 C 67.351562 97.34375 70.136719 95.828125 73.933594 93.308594 "/><path style=" stroke:none;fill-rule:nonzero;fill:#ffaa00;fill-opacity:1;" d="M 136.195312 62.78125 L 119.527344 92.726562 C 120.136719 93.601562 121.160156 94.304688 122.601562 94.835938 C 122.832031 95.023438 124.152344 95.324219 126.554688 95.746094 C 127.589844 95.886719 128.730469 95.980469 129.976562 96.035156 C 129.957031 95.839844 130.019531 95.128906 130.167969 93.90625 C 130.488281 91.414062 130.804688 89.082031 131.125 86.914062 C 133.484375 76.347656 135.171875 68.304688 136.195312 62.78125 "/><path style=" stroke:none;fill-rule:nonzero;fill:#ffaa00;fill-opacity:1;" d="M 50.804688 62.78125 L 67.46875 92.726562 C 66.863281 93.601562 65.839844 94.304688 64.394531 94.835938 C 64.164062 95.023438 62.847656 95.324219 60.441406 95.746094 C 59.40625 95.886719 58.265625 95.980469 57.023438 96.035156 C 57.042969 95.839844 56.980469 95.128906 56.828125 93.90625 C 56.511719 91.414062 56.191406 89.082031 55.875 86.914062 C 53.515625 76.347656 51.824219 68.304688 50.804688 62.78125 "/><path style=" stroke:none;fill-rule:nonzero;fill:#ffaa00;fill-opacity:1;" d="M 93.253906 38.28125 L 93.25 38.28125 C 93.191406 38.441406 93.144531 38.628906 93.113281 38.835938 L 91.488281 49.671875 C 91.273438 51.433594 91.15625 52.421875 91.140625 52.636719 C 91.011719 54.933594 90.890625 56.710938 90.773438 57.976562 C 90.707031 58.628906 90.601562 59.398438 90.457031 60.28125 C 90.253906 61.414062 89.933594 62.832031 89.488281 64.535156 C 89.414062 64.871094 89.015625 66.3125 88.285156 68.855469 L 87.257812 72.269531 L 94.417969 58.878906 C 94.515625 57.972656 94.589844 57.042969 94.640625 56.09375 C 94.691406 55.390625 94.726562 54.175781 94.742188 52.441406 C 94.742188 51.625 94.730469 50.851562 94.710938 50.117188 C 94.5625 47.1875 94.476562 45.015625 94.449219 43.601562 L 94.375 42.484375 C 94.320312 41.785156 94.257812 41.171875 94.183594 40.644531 C 94.113281 40.121094 94.027344 39.683594 93.933594 39.332031 C 93.75 38.628906 93.523438 38.28125 93.253906 38.28125 "/><path style=" stroke:none;fill-rule:nonzero;fill:#ffaa00;fill-opacity:1;" d="M 93.742188 38.28125 L 93.75 38.28125 C 93.808594 38.441406 93.851562 38.628906 93.882812 38.835938 L 95.507812 49.671875 C 95.726562 51.433594 95.839844 52.421875 95.855469 52.636719 C 95.984375 54.933594 96.109375 56.710938 96.226562 57.976562 C 96.292969 58.628906 96.398438 59.398438 96.542969 60.28125 C 96.742188 61.414062 97.066406 62.832031 97.511719 64.535156 C 97.582031 64.871094 97.984375 66.3125 98.710938 68.855469 L 99.742188 72.269531 L 92.578125 58.878906 C 92.484375 57.972656 92.410156 57.042969 92.355469 56.09375 C 92.304688 55.390625 92.273438 54.175781 92.257812 52.441406 C 92.257812 51.625 92.265625 50.851562 92.289062 50.117188 C 92.433594 47.1875 92.519531 45.015625 92.550781 43.601562 L 92.621094 42.484375 C 92.675781 41.785156 92.738281 41.171875 92.8125 40.644531 C 92.886719 40.121094 92.96875 39.683594 93.0625 39.332031 C 93.25 38.628906 93.476562 38.28125 93.742188 38.28125 "/><g clip-rule="nonzero" clip-path="url(#ab4e0588e5)"><path style=" stroke:none;fill-rule:nonzero;fill:#ffaa00;fill-opacity:1;" d="M 98.589844 36.226562 L 98.542969 36.875 C 98.335938 38.1875 97.730469 39.234375 96.726562 40.019531 C 95.710938 40.804688 94.519531 41.121094 93.148438 40.972656 C 91.839844 40.765625 90.792969 40.160156 90.007812 39.152344 C 89.753906 38.828125 89.546875 38.472656 89.386719 38.089844 L 89.179688 37.5 C 89.066406 37.09375 89.011719 36.667969 89.007812 36.226562 C 89.042969 34.871094 89.511719 33.742188 90.410156 32.839844 C 91.3125 31.9375 92.441406 31.472656 93.796875 31.4375 C 95.15625 31.472656 96.285156 31.9375 97.183594 32.839844 C 98.085938 33.742188 98.554688 34.871094 98.589844 36.226562 "/></g><g clip-rule="nonzero" clip-path="url(#1e92cc35d4)"><path style=" stroke:none;fill-rule:nonzero;fill:#ffaa00;fill-opacity:1;" d="M 88.410156 36.226562 L 88.453125 36.875 C 88.660156 38.1875 89.269531 39.234375 90.273438 40.019531 C 91.285156 40.804688 92.476562 41.121094 93.851562 40.972656 C 95.160156 40.765625 96.207031 40.160156 96.992188 39.152344 C 97.242188 38.828125 97.449219 38.472656 97.613281 38.089844 L 97.816406 37.5 C 97.929688 37.09375 97.988281 36.667969 97.988281 36.226562 C 97.957031 34.871094 97.488281 33.742188 96.585938 32.839844 C 95.6875 31.9375 94.558594 31.472656 93.199219 31.4375 C 91.84375 31.472656 90.714844 31.9375 89.8125 32.839844 C 88.914062 33.742188 88.445312 34.871094 88.410156 36.226562 "/></g><path style=" stroke:none;fill-rule:nonzero;fill:#ffaa00;fill-opacity:1;" d="M 144.671875 59.019531 L 144.589844 59.761719 C 144.277344 61.246094 143.46875 62.414062 142.171875 63.265625 C 140.863281 64.117188 139.347656 64.425781 137.621094 64.195312 C 135.980469 63.898438 134.683594 63.160156 133.734375 61.976562 C 133.433594 61.59375 133.1875 61.179688 132.996094 60.734375 L 132.761719 60.050781 C 132.636719 59.582031 132.582031 59.09375 132.597656 58.589844 C 132.695312 57.042969 133.332031 55.773438 134.503906 54.785156 C 135.675781 53.796875 137.117188 53.316406 138.828125 53.335938 C 140.539062 53.4375 141.941406 54.019531 143.042969 55.089844 C 144.140625 56.160156 144.683594 57.46875 144.671875 59.019531 "/><path style=" stroke:none;fill-rule:nonzero;fill:#ffaa00;fill-opacity:1;" d="M 42.324219 59.019531 L 42.40625 59.761719 C 42.722656 61.246094 43.527344 62.414062 44.828125 63.265625 C 46.136719 64.117188 47.652344 64.425781 49.375 64.195312 C 51.019531 63.898438 52.3125 63.160156 53.261719 61.976562 C 53.566406 61.59375 53.8125 61.179688 54.003906 60.734375 L 54.238281 60.050781 C 54.363281 59.582031 54.417969 59.09375 54.402344 58.589844 C 54.304688 57.042969 53.667969 55.773438 52.496094 54.785156 C 51.324219 53.796875 49.878906 53.316406 48.167969 53.335938 C 46.460938 53.4375 45.054688 54.019531 43.957031 55.089844 C 42.855469 56.160156 42.3125 57.46875 42.324219 59.019531 "/><path style=" stroke:none;fill-rule:nonzero;fill:#ffaa00;fill-opacity:1;" d="M 105.875 89.460938 L 105.644531 89.503906 C 105.398438 89.597656 105.367188 89.824219 105.5625 90.1875 C 105.542969 90.234375 105.8125 90.582031 106.375 91.226562 C 107.9375 92.777344 109.234375 93.917969 110.269531 94.65625 C 113.515625 96.984375 116.550781 98.730469 119.371094 99.898438 C 122.410156 101.152344 125.242188 101.984375 127.871094 102.390625 C 130.671875 102.753906 133.15625 102.703125 135.320312 102.230469 C 136.480469 101.980469 137.175781 101.8125 137.40625 101.726562 L 132.949219 98.792969 C 130.972656 98.859375 129.511719 98.824219 128.570312 98.6875 C 125.441406 98.277344 123.316406 97.855469 122.199219 97.421875 C 119.84375 96.632812 117.492188 95.640625 115.152344 94.4375 C 114.089844 93.902344 111.40625 92.398438 107.105469 89.929688 C 106.632812 89.683594 106.222656 89.527344 105.875 89.460938 "/><path style=" stroke:none;fill-rule:nonzero;fill:#ffaa00;fill-opacity:1;" d="M 81.125 89.460938 L 81.351562 89.503906 C 81.601562 89.597656 81.628906 89.824219 81.433594 90.1875 C 81.457031 90.234375 81.183594 90.582031 80.625 91.226562 C 79.0625 92.777344 77.765625 93.917969 76.730469 94.65625 C 73.484375 96.984375 70.449219 98.730469 67.628906 99.898438 C 64.589844 101.152344 61.753906 101.984375 59.128906 102.390625 C 56.324219 102.753906 53.839844 102.703125 51.675781 102.230469 C 50.519531 101.980469 49.824219 101.8125 49.59375 101.726562 L 54.046875 98.792969 C 56.023438 98.859375 57.484375 98.824219 58.429688 98.6875 C 61.558594 98.277344 63.683594 97.855469 64.796875 97.421875 C 67.15625 96.632812 69.503906 95.640625 71.847656 94.4375 C 72.910156 93.902344 75.59375 92.398438 79.894531 89.929688 C 80.367188 89.683594 80.777344 89.527344 81.125 89.460938 "/><path style=" stroke:none;fill-rule:nonzero;fill:#ffaa00;fill-opacity:1;" d="M 120.714844 91.3125 L 120.660156 91.351562 C 120.519531 91.457031 120.390625 91.589844 120.273438 91.742188 C 120.019531 92.15625 119.578125 92.773438 118.949219 93.597656 L 118.742188 93.945312 C 118.664062 94.046875 118.679688 94.164062 118.785156 94.292969 C 118.863281 94.378906 119 94.476562 119.195312 94.585938 C 119.777344 94.910156 120.890625 95.332031 122.53125 95.84375 C 123.929688 96.1875 124.738281 96.375 124.964844 96.40625 C 125.976562 96.605469 126.902344 96.738281 127.730469 96.804688 C 128.707031 96.878906 129.46875 96.871094 130.027344 96.777344 C 130.078125 96.761719 130.105469 96.6875 130.109375 96.558594 C 130.019531 96.210938 129.957031 95.316406 129.921875 93.875 L 120.714844 91.3125 "/><path style=" stroke:none;fill-rule:nonzero;fill:#ffaa00;fill-opacity:1;" d="M 66.28125 91.3125 L 66.335938 91.351562 C 66.480469 91.457031 66.609375 91.589844 66.722656 91.742188 C 66.976562 92.15625 67.417969 92.773438 68.050781 93.597656 L 68.257812 93.945312 C 68.335938 94.046875 68.320312 94.164062 68.210938 94.292969 C 68.136719 94.378906 68 94.476562 67.804688 94.585938 C 67.222656 94.910156 66.109375 95.332031 64.46875 95.84375 C 63.070312 96.1875 62.257812 96.375 62.035156 96.40625 C 61.019531 96.605469 60.097656 96.738281 59.265625 96.804688 C 58.292969 96.878906 57.527344 96.871094 56.972656 96.777344 C 56.921875 96.761719 56.894531 96.6875 56.890625 96.558594 C 56.976562 96.210938 57.039062 95.316406 57.078125 93.875 L 66.28125 91.3125 "/><g clip-rule="nonzero" clip-path="url(#ff9136e5ef)"><path style=" stroke:none;fill-rule:nonzero;fill:#ffaa00;fill-opacity:1;" d="M 174.027344 69.503906 L 173.933594 70.308594 C 173.589844 71.921875 172.769531 73.183594 171.472656 74.09375 C 170.164062 75 168.664062 75.320312 166.972656 75.046875 C 165.359375 74.703125 164.097656 73.886719 163.1875 72.585938 C 162.898438 72.167969 162.664062 71.714844 162.484375 71.226562 L 162.269531 70.480469 C 162.152344 69.96875 162.109375 69.4375 162.136719 68.890625 C 162.265625 67.207031 162.921875 65.835938 164.097656 64.773438 C 165.273438 63.714844 166.703125 63.207031 168.390625 63.25 C 170.074219 63.382812 171.445312 64.035156 172.503906 65.210938 C 173.566406 66.386719 174.074219 67.820312 174.027344 69.503906 "/></g><g clip-rule="nonzero" clip-path="url(#3234242edf)"><path style=" stroke:none;fill-rule:nonzero;fill:#ffaa00;fill-opacity:1;" d="M 12.96875 69.503906 L 13.066406 70.308594 C 13.40625 71.921875 14.226562 73.183594 15.527344 74.09375 C 16.832031 75 18.335938 75.320312 20.027344 75.046875 C 21.640625 74.703125 22.902344 73.886719 23.808594 72.585938 C 24.101562 72.167969 24.335938 71.714844 24.515625 71.226562 L 24.730469 70.480469 C 24.84375 69.96875 24.886719 69.4375 24.859375 68.890625 C 24.730469 67.207031 24.078125 65.835938 22.902344 64.773438 C 21.726562 63.714844 20.292969 63.207031 18.605469 63.25 C 16.925781 63.382812 15.554688 64.035156 14.492188 65.210938 C 13.433594 66.386719 12.925781 67.820312 12.96875 69.503906 "/></g></g></svg>