<svg xmlns="http://www.w3.org/2000/svg" xmlns:xlink="http://www.w3.org/1999/xlink" width="250" zoomAndPan="magnify" viewBox="0 0 187.5 187.499992" height="250" preserveAspectRatio="xMidYMid meet" version="1.2"><defs><clipPath id="bffd4e935a"><path d="M 18.699219 30.351562 L 165 30.351562 L 165 156.765625 L 18.699219 156.765625 Z M 18.699219 30.351562 "/></clipPath></defs><g id="2916f9c60b"><g clip-rule="nonzero" clip-path="url(#bffd4e935a)"><path style=" stroke:none;fill-rule:evenodd;fill:#ffaa00;fill-opacity:1;" d="M 52.144531 94.152344 C 52.140625 94.042969 52.136719 93.933594 52.132812 93.824219 C 50.980469 64.359375 76.171875 42.457031 102.054688 42.457031 C 127.9375 42.457031 152.636719 62.855469 152.636719 93.824219 C 152.636719 108.15625 145.980469 121.617188 137.207031 130.242188 C 127.019531 140.25 113.839844 144.289062 102.726562 144.289062 C 82.046875 144.289062 67.71875 129.671875 67.71875 129.671875 L 58.515625 138.328125 C 58.515625 138.328125 67.8125 146.589844 75.460938 150.125 C 83.105469 153.664062 85.34375 155.804688 102.054688 156.179688 C 116.40625 156.5 129.800781 150.085938 138.511719 144.289062 C 163.03125 127.96875 164.933594 104.664062 164.933594 93.988281 C 164.933594 83.308594 162.808594 62.347656 142.390625 45.023438 C 132.839844 36.921875 120.421875 30.5 100.878906 30.5 C 82.648438 30.5 68.785156 38.890625 59.742188 46.773438 C 38.355469 65.410156 39.230469 93.988281 39.230469 93.988281 C 39.230469 93.988281 39.257812 94.042969 39.308594 94.152344 L 18.6875 94.152344 L 46.46875 122.824219 L 75.144531 94.152344 Z M 52.144531 94.152344 "/></g><path style=" stroke:none;fill-rule:evenodd;fill:#ffaa00;fill-opacity:1;" d="M 96.386719 67.453125 L 96.386719 100.949219 L 126.15625 119.027344 L 131.21875 111.984375 L 106.1875 96.816406 L 106.1875 67.453125 Z M 96.386719 67.453125 "/></g></svg>