<svg xmlns="http://www.w3.org/2000/svg" xmlns:xlink="http://www.w3.org/1999/xlink" width="250" zoomAndPan="magnify" viewBox="0 0 187.5 187.499992" height="250" preserveAspectRatio="xMidYMid meet" version="1.2"><defs><clipPath id="d112f60419"><path d="M 41.742188 18.699219 L 144.964844 18.699219 L 144.964844 166 L 41.742188 166 Z M 41.742188 18.699219 "/></clipPath></defs><g id="48d1f9589d"><g clip-rule="nonzero" clip-path="url(#d112f60419)"><path style=" stroke:none;fill-rule:nonzero;fill:#ffaa00;fill-opacity:1;" d="M 136.121094 51.738281 L 136.121094 32.441406 L 141.058594 32.441406 C 143.222656 32.441406 144.921875 30.742188 144.921875 28.582031 L 144.921875 22.558594 C 144.921875 20.398438 143.222656 18.699219 141.058594 18.699219 L 45.644531 18.699219 C 43.484375 18.699219 41.785156 20.398438 41.785156 22.558594 L 41.785156 28.734375 C 41.785156 30.898438 43.484375 32.59375 45.644531 32.59375 L 50.585938 32.59375 L 50.585938 51.894531 C 50.585938 64.398438 55.988281 75.980469 65.5625 84.007812 L 75.289062 92.035156 L 65.5625 100.066406 C 55.988281 108.09375 50.585938 119.828125 50.585938 132.179688 L 50.585938 151.476562 L 45.644531 151.476562 C 43.484375 151.476562 41.785156 153.175781 41.785156 155.335938 L 41.785156 161.511719 C 41.785156 163.675781 43.484375 165.375 45.644531 165.375 L 140.90625 165.375 C 143.066406 165.375 144.765625 163.675781 144.765625 161.511719 L 144.765625 155.335938 C 144.765625 153.175781 143.066406 151.476562 140.90625 151.476562 L 135.964844 151.476562 L 135.964844 132.332031 C 135.964844 119.828125 130.5625 108.246094 120.988281 100.21875 L 111.417969 92.035156 L 121.144531 84.007812 C 130.5625 75.980469 136.121094 64.246094 136.121094 51.738281 Z M 116.203125 78.140625 L 103.078125 89.101562 C 102.152344 89.875 101.691406 90.957031 101.691406 92.035156 C 101.691406 93.117188 102.152344 94.199219 103.078125 94.96875 L 116.203125 105.933594 C 124.078125 112.417969 128.554688 121.988281 128.554688 132.179688 L 128.554688 151.476562 L 58.152344 151.476562 L 58.152344 132.332031 C 58.152344 122.144531 62.628906 112.570312 70.503906 106.085938 L 83.625 95.125 C 84.550781 94.351562 85.015625 93.273438 85.015625 92.191406 C 85.015625 91.109375 84.550781 90.03125 83.625 89.257812 L 70.503906 78.140625 C 62.628906 71.65625 58.152344 62.085938 58.152344 51.894531 L 58.152344 32.441406 L 128.398438 32.441406 L 128.398438 51.738281 C 128.554688 61.929688 123.921875 71.503906 116.203125 78.140625 Z M 116.203125 78.140625 "/></g><path style=" stroke:none;fill-rule:nonzero;fill:#ffaa00;fill-opacity:1;" d="M 112.1875 118.746094 L 96.902344 109.019531 C 95.667969 108.246094 95.050781 107.011719 95.050781 105.46875 L 95.050781 87.714844 L 112.34375 73.355469 C 112.804688 72.890625 113.269531 72.582031 113.734375 72.121094 C 113.734375 72.121094 102.925781 74.589844 93.507812 74.589844 C 84.089844 74.589844 73.28125 72.121094 73.28125 72.121094 C 73.746094 72.582031 74.207031 73.046875 74.671875 73.355469 L 91.964844 87.714844 L 91.964844 105.46875 C 91.964844 106.859375 91.191406 108.246094 90.109375 109.019531 L 74.824219 118.902344 C 68.339844 123.070312 64.789062 129.089844 64.789062 135.421875 L 64.789062 145.457031 L 122.6875 145.457031 L 122.6875 135.265625 C 122.378906 128.9375 118.671875 122.914062 112.1875 118.746094 Z M 112.1875 118.746094 "/></g></svg>