<svg xmlns="http://www.w3.org/2000/svg" xmlns:xlink="http://www.w3.org/1999/xlink" width="250" zoomAndPan="magnify" viewBox="0 0 187.5 187.499992" height="250" preserveAspectRatio="xMidYMid meet" version="1.2"><defs><clipPath id="2bd105bb34"><path d="M 32.710938 28.394531 L 154.632812 28.394531 L 154.632812 138 L 32.710938 138 Z M 32.710938 28.394531 "/></clipPath><clipPath id="bbd5621721"><path d="M 59 141 L 128 141 L 128 158.546875 L 59 158.546875 Z M 59 141 "/></clipPath></defs><g id="f52e8e9a43"><g clip-rule="nonzero" clip-path="url(#2bd105bb34)"><path style=" stroke:none;fill-rule:nonzero;fill:#ffaa00;fill-opacity:1;" d="M 150.625 38.890625 L 134.332031 38.890625 L 134.332031 32.457031 C 134.335938 29.742188 133.265625 28.675781 130.550781 28.675781 L 55.894531 28.675781 C 53.179688 28.675781 52.109375 29.742188 52.109375 32.457031 L 52.109375 38.890625 L 36.324219 38.890625 C 33.71875 38.890625 32.691406 39.914062 32.691406 42.523438 L 32.691406 42.824219 C 33.527344 63.894531 47.449219 81.746094 68.539062 89.296875 C 73.085938 96.015625 78.648438 101.925781 85.402344 106.777344 C 84.5625 119.476562 80.082031 128.324219 72.996094 136.578125 C 72.453125 137.207031 72.425781 137.714844 73.511719 137.714844 L 112.933594 137.714844 C 114.019531 137.714844 113.996094 137.210938 113.449219 136.578125 C 106.363281 128.324219 101.882812 119.476562 101.042969 106.777344 C 107.722656 101.980469 113.234375 96.144531 117.75 89.519531 C 139.207031 82.109375 153.410156 64.113281 154.253906 42.824219 L 154.253906 42.523438 C 154.257812 39.914062 153.230469 38.890625 150.625 38.890625 Z M 40.703125 47.203125 C 40.640625 46.792969 40.753906 46.457031 41.351562 46.457031 L 52.9375 46.457031 C 54.71875 57.734375 57.671875 68.410156 62.148438 77.980469 C 50.488281 71.074219 42.660156 60.015625 40.703125 47.203125 Z M 146.246094 47.203125 C 144.246094 60.265625 136.152344 71.503906 124.113281 78.378906 C 128.695312 68.707031 131.703125 57.890625 133.507812 46.457031 L 145.597656 46.457031 C 146.195312 46.457031 146.308594 46.792969 146.246094 47.203125 Z M 146.246094 47.203125 "/></g><g clip-rule="nonzero" clip-path="url(#bbd5621721)"><path style=" stroke:none;fill-rule:nonzero;fill:#ffaa00;fill-opacity:1;" d="M 123.488281 141.496094 L 62.957031 141.496094 C 60.449219 141.496094 59.171875 142.777344 59.171875 145.28125 L 59.171875 154.488281 C 59.171875 156.992188 60.449219 158.269531 62.957031 158.269531 L 123.488281 158.269531 C 125.996094 158.269531 127.269531 156.992188 127.269531 154.488281 L 127.269531 145.28125 C 127.269531 142.773438 125.996094 141.496094 123.488281 141.496094 Z M 123.488281 141.496094 "/></g></g></svg>